<svg width="50" height="50" viewBox="0 0 50 50" fill="none" xmlns="http://www.w3.org/2000/svg">
<path d="M15.767 4.1665H32.567C38.967 4.1665 44.167 9.3665 44.167 15.7665V32.5665C44.167 35.643 42.9449 38.5935 40.7694 40.7689C38.594 42.9444 35.6435 44.1665 32.567 44.1665H15.767C9.36699 44.1665 4.16699 38.9665 4.16699 32.5665V15.7665C4.16699 12.69 5.38913 9.73949 7.56455 7.56407C9.73998 5.38864 12.6905 4.1665 15.767 4.1665ZM15.367 8.1665C13.4574 8.1665 11.6261 8.92507 10.2758 10.2753C8.92556 11.6256 8.16699 13.4569 8.16699 15.3665V32.9665C8.16699 36.9465 11.387 40.1665 15.367 40.1665H32.967C34.8766 40.1665 36.7079 39.4079 38.0582 38.0577C39.4084 36.7074 40.167 34.8761 40.167 32.9665V15.3665C40.167 11.3865 36.947 8.1665 32.967 8.1665H15.367ZM34.667 11.1665C35.33 11.1665 35.9659 11.4299 36.4348 11.8987C36.9036 12.3676 37.167 13.0035 37.167 13.6665C37.167 14.3295 36.9036 14.9654 36.4348 15.4343C35.9659 15.9031 35.33 16.1665 34.667 16.1665C34.004 16.1665 33.3681 15.9031 32.8992 15.4343C32.4304 14.9654 32.167 14.3295 32.167 13.6665C32.167 13.0035 32.4304 12.3676 32.8992 11.8987C33.3681 11.4299 34.004 11.1665 34.667 11.1665ZM24.167 14.1665C26.8192 14.1665 29.3627 15.2201 31.2381 17.0954C33.1134 18.9708 34.167 21.5143 34.167 24.1665C34.167 26.8187 33.1134 29.3622 31.2381 31.2376C29.3627 33.1129 26.8192 34.1665 24.167 34.1665C21.5148 34.1665 18.9713 33.1129 17.0959 31.2376C15.2206 29.3622 14.167 26.8187 14.167 24.1665C14.167 21.5143 15.2206 18.9708 17.0959 17.0954C18.9713 15.2201 21.5148 14.1665 24.167 14.1665ZM24.167 18.1665C22.5757 18.1665 21.0496 18.7986 19.9244 19.9239C18.7991 21.0491 18.167 22.5752 18.167 24.1665C18.167 25.7578 18.7991 27.2839 19.9244 28.4091C21.0496 29.5344 22.5757 30.1665 24.167 30.1665C25.7583 30.1665 27.2844 29.5344 28.4096 28.4091C29.5349 27.2839 30.167 25.7578 30.167 24.1665C30.167 22.5752 29.5349 21.0491 28.4096 19.9239C27.2844 18.7986 25.7583 18.1665 24.167 18.1665Z" fill="black"/>
</svg>
